<svg width="234" height="24" viewBox="0 0 234 24" fill="none" xmlns="http://www.w3.org/2000/svg">
<path d="M18.153 1.18182V23H14.6373L4.3568 8.13849H4.17569V23H0.223278V1.18182H3.76021L14.0301 16.054H14.2219V1.18182H18.153ZM44.9553 12.0909C44.9553 14.4418 44.515 16.4553 43.6343 18.1314C42.7607 19.8004 41.5676 21.0788 40.0548 21.9666C38.5491 22.8544 36.841 23.2983 34.9305 23.2983C33.02 23.2983 31.3083 22.8544 29.7955 21.9666C28.2899 21.0717 27.0967 19.7898 26.216 18.1207C25.3424 16.4446 24.9056 14.4347 24.9056 12.0909C24.9056 9.74006 25.3424 7.73011 26.216 6.06108C27.0967 4.38494 28.2899 3.10298 29.7955 2.2152C31.3083 1.32741 33.02 0.883522 34.9305 0.883522C36.841 0.883522 38.5491 1.32741 40.0548 2.2152C41.5676 3.10298 42.7607 4.38494 43.6343 6.06108C44.515 7.73011 44.9553 9.74006 44.9553 12.0909ZM40.9816 12.0909C40.9816 10.4361 40.7224 9.04048 40.2039 7.90412C39.6926 6.76065 38.9823 5.89773 38.0732 5.31534C37.1642 4.72585 36.1166 4.43111 34.9305 4.43111C33.7444 4.43111 32.6968 4.72585 31.7877 5.31534C30.8786 5.89773 30.1649 6.76065 29.6464 7.90412C29.135 9.04048 28.8794 10.4361 28.8794 12.0909C28.8794 13.7457 29.135 15.1449 29.6464 16.2884C30.1649 17.4247 30.8786 18.2876 31.7877 18.8771C32.6968 19.4595 33.7444 19.7507 34.9305 19.7507C36.1166 19.7507 37.1642 19.4595 38.0732 18.8771C38.9823 18.2876 39.6926 17.4247 40.2039 16.2884C40.7224 15.1449 40.9816 13.7457 40.9816 12.0909ZM53.4392 1.18182L59.1175 18.3551H59.3412L65.0088 1.18182H69.3554L61.6636 23H56.7844L49.1032 1.18182H53.4392ZM93.553 12.0909C93.553 14.4418 93.1127 16.4553 92.232 18.1314C91.3584 19.8004 90.1652 21.0788 88.6524 21.9666C87.1468 22.8544 85.4387 23.2983 83.5281 23.2983C81.6176 23.2983 79.906 22.8544 78.3932 21.9666C76.8875 21.0717 75.6943 19.7898 74.8137 18.1207C73.9401 16.4446 73.5033 14.4347 73.5033 12.0909C73.5033 9.74006 73.9401 7.73011 74.8137 6.06108C75.6943 4.38494 76.8875 3.10298 78.3932 2.2152C79.906 1.32741 81.6176 0.883522 83.5281 0.883522C85.4387 0.883522 87.1468 1.32741 88.6524 2.2152C90.1652 3.10298 91.3584 4.38494 92.232 6.06108C93.1127 7.73011 93.553 9.74006 93.553 12.0909ZM89.5793 12.0909C89.5793 10.4361 89.32 9.04048 88.8016 7.90412C88.2902 6.76065 87.58 5.89773 86.6709 5.31534C85.7618 4.72585 84.7142 4.43111 83.5281 4.43111C82.3421 4.43111 81.2945 4.72585 80.3854 5.31534C79.4763 5.89773 78.7625 6.76065 78.2441 7.90412C77.7327 9.04048 77.477 10.4361 77.477 12.0909C77.477 13.7457 77.7327 15.1449 78.2441 16.2884C78.7625 17.4247 79.4763 18.2876 80.3854 18.8771C81.2945 19.4595 82.3421 19.7507 83.5281 19.7507C84.7142 19.7507 85.7618 19.4595 86.6709 18.8771C87.58 18.2876 88.2902 17.4247 88.8016 16.2884C89.32 15.1449 89.5793 13.7457 89.5793 12.0909ZM113.533 23H109.314L116.995 1.18182H121.875L129.566 23H125.348L119.52 5.65625H119.35L113.533 23ZM113.671 14.4453H125.177V17.62H113.671V14.4453ZM135.44 23V1.18182H143.622C145.298 1.18182 146.704 1.47301 147.841 2.0554C148.984 2.63778 149.847 3.45454 150.429 4.50568C151.019 5.54972 151.314 6.76776 151.314 8.1598C151.314 9.55895 151.015 10.7734 150.419 11.8033C149.829 12.826 148.959 13.6179 147.809 14.179C146.658 14.733 145.245 15.0099 143.569 15.0099H137.741V11.7287H143.036C144.016 11.7287 144.819 11.5937 145.444 11.3239C146.069 11.0469 146.53 10.6456 146.829 10.12C147.134 9.58736 147.287 8.93395 147.287 8.1598C147.287 7.38565 147.134 6.72514 146.829 6.17827C146.523 5.62429 146.058 5.20526 145.433 4.92116C144.808 4.62997 144.002 4.48438 143.015 4.48438H139.392V23H135.44ZM146.711 13.1136L152.113 23H147.702L142.397 13.1136H146.711ZM177.448 12.0909C177.448 14.4418 177.007 16.4553 176.127 18.1314C175.253 19.8004 174.06 21.0788 172.547 21.9666C171.041 22.8544 169.333 23.2983 167.423 23.2983C165.512 23.2983 163.801 22.8544 162.288 21.9666C160.782 21.0717 159.589 19.7898 158.708 18.1207C157.835 16.4446 157.398 14.4347 157.398 12.0909C157.398 9.74006 157.835 7.73011 158.708 6.06108C159.589 4.38494 160.782 3.10298 162.288 2.2152C163.801 1.32741 165.512 0.883522 167.423 0.883522C169.333 0.883522 171.041 1.32741 172.547 2.2152C174.06 3.10298 175.253 4.38494 176.127 6.06108C177.007 7.73011 177.448 9.74006 177.448 12.0909ZM173.474 12.0909C173.474 10.4361 173.215 9.04048 172.696 7.90412C172.185 6.76065 171.475 5.89773 170.565 5.31534C169.656 4.72585 168.609 4.43111 167.423 4.43111C166.237 4.43111 165.189 4.72585 164.28 5.31534C163.371 5.89773 162.657 6.76065 162.139 7.90412C161.627 9.04048 161.372 10.4361 161.372 12.0909C161.372 13.7457 161.627 15.1449 162.139 16.2884C162.657 17.4247 163.371 18.2876 164.28 18.8771C165.189 19.4595 166.237 19.7507 167.423 19.7507C168.609 19.7507 169.656 19.4595 170.565 18.8771C171.475 18.2876 172.185 17.4247 172.696 16.2884C173.215 15.1449 173.474 13.7457 173.474 12.0909ZM184.184 1.18182H189.021L195.498 16.9915H195.754L202.231 1.18182H207.068V23H203.275V8.01065H203.073L197.043 22.9361H194.209L188.179 7.97869H187.977V23H184.184V1.18182ZM217.174 23H212.955L220.636 1.18182H225.515L233.207 23H228.988L223.161 5.65625H222.99L217.174 23ZM217.312 14.4453H228.818V17.62H217.312V14.4453Z" fill="#96775A"/>
</svg>
